<?xml version="1.0" encoding="UTF-8" standalone="no"?>
<!DOCTYPE svg PUBLIC "-//W3C//DTD SVG 1.1//EN"
 "http://www.w3.org/Graphics/SVG/1.1/DTD/svg11.dtd">
<!-- Generated by graphviz version 2.26.3 (20100126.1600)
 -->
<!-- Title: controllers_diagram Pages: 1 -->
<svg width="1781pt" height="994pt"
 viewBox="0.00 0.00 1780.99 994.11" xmlns="http://www.w3.org/2000/svg" xmlns:xlink="http://www.w3.org/1999/xlink">
<g id="graph1" class="graph" transform="scale(1 1) rotate(0) translate(4 990.11)">
<title>controllers_diagram</title>
<polygon fill="white" stroke="white" points="-4,5 -4,-990.11 1777.99,-990.11 1777.99,5 -4,5"/>
<!-- _diagram_info -->
<g id="node1" class="node"><title>_diagram_info</title>
<text text-anchor="start" x="969" y="-270.3" font-family="Times Roman,serif" font-size="13.00">Controllers diagram</text>
<text text-anchor="start" x="969" y="-253.3" font-family="Times Roman,serif" font-size="13.00">Date: Feb 01 2014 &#45; 13:08</text>
<text text-anchor="start" x="969" y="-236.3" font-family="Times Roman,serif" font-size="13.00">Migration version: 20140201120228</text>
<text text-anchor="start" x="969" y="-219.3" font-family="Times Roman,serif" font-size="13.00">Generated by RailRoady 1.1.1</text>
<text text-anchor="start" x="969" y="-202.3" font-family="Times Roman,serif" font-size="13.00">http://railroady.prestonlee.com</text>
</g>
<!-- ApplicationController -->
<g id="node2" class="node"><title>ApplicationController</title>
<polyline fill="none" stroke="black" points="364.516,-399.058 501.516,-399.058 "/>
<path fill="none" stroke="black" d="M501.516,-399.058C507.516,-399.058 513.516,-405.058 513.516,-411.058"/>
<polyline fill="none" stroke="black" points="513.516,-411.058 513.516,-543.058 "/>
<path fill="none" stroke="black" d="M513.516,-543.058C513.516,-549.058 507.516,-555.058 501.516,-555.058"/>
<polyline fill="none" stroke="black" points="501.516,-555.058 364.516,-555.058 "/>
<path fill="none" stroke="black" d="M364.516,-555.058C358.516,-555.058 352.516,-549.058 352.516,-543.058"/>
<polyline fill="none" stroke="black" points="352.516,-543.058 352.516,-411.058 "/>
<path fill="none" stroke="black" d="M352.516,-411.058C352.516,-405.058 358.516,-399.058 364.516,-399.058"/>
<text text-anchor="middle" x="433.016" y="-538.458" font-family="Times Roman,serif" font-size="14.00">ApplicationController</text>
<polyline fill="none" stroke="black" points="352.516,-529.058 513.516,-529.058 "/>
<text text-anchor="start" x="360.516" y="-512.458" font-family="Times Roman,serif" font-size="14.00">locale_list</text>
<text text-anchor="start" x="360.516" y="-494.458" font-family="Times Roman,serif" font-size="14.00">retrieve_broadcasts</text>
<text text-anchor="start" x="360.516" y="-476.458" font-family="Times Roman,serif" font-size="14.00">role_list</text>
<text text-anchor="start" x="360.516" y="-458.458" font-family="Times Roman,serif" font-size="14.00">set_locale</text>
<polyline fill="none" stroke="black" points="352.516,-449.058 513.516,-449.058 "/>
<polyline fill="none" stroke="black" points="352.516,-425.058 513.516,-425.058 "/>
<text text-anchor="start" x="360.516" y="-408.458" font-family="Times Roman,serif" font-size="14.00">_layout</text>
</g>
<!-- AppliancesController -->
<g id="node3" class="node"><title>AppliancesController</title>
<polyline fill="none" stroke="black" points="688.748,-524.141 822.748,-524.141 "/>
<path fill="none" stroke="black" d="M822.748,-524.141C828.748,-524.141 834.748,-530.141 834.748,-536.141"/>
<polyline fill="none" stroke="black" points="834.748,-536.141 834.748,-686.141 "/>
<path fill="none" stroke="black" d="M834.748,-686.141C834.748,-692.141 828.748,-698.141 822.748,-698.141"/>
<polyline fill="none" stroke="black" points="822.748,-698.141 688.748,-698.141 "/>
<path fill="none" stroke="black" d="M688.748,-698.141C682.748,-698.141 676.748,-692.141 676.748,-686.141"/>
<polyline fill="none" stroke="black" points="676.748,-686.141 676.748,-536.141 "/>
<path fill="none" stroke="black" d="M676.748,-536.141C676.748,-530.141 682.748,-524.141 688.748,-524.141"/>
<text text-anchor="middle" x="755.748" y="-681.541" font-family="Times Roman,serif" font-size="14.00">AppliancesController</text>
<polyline fill="none" stroke="black" points="676.748,-672.141 834.748,-672.141 "/>
<text text-anchor="start" x="684.748" y="-655.541" font-family="Times Roman,serif" font-size="14.00">create</text>
<text text-anchor="start" x="684.748" y="-637.541" font-family="Times Roman,serif" font-size="14.00">destroy</text>
<text text-anchor="start" x="684.748" y="-619.541" font-family="Times Roman,serif" font-size="14.00">index</text>
<text text-anchor="start" x="684.748" y="-601.541" font-family="Times Roman,serif" font-size="14.00">new</text>
<text text-anchor="start" x="684.748" y="-583.541" font-family="Times Roman,serif" font-size="14.00">update</text>
<polyline fill="none" stroke="black" points="676.748,-574.141 834.748,-574.141 "/>
<polyline fill="none" stroke="black" points="676.748,-550.141 834.748,-550.141 "/>
<text text-anchor="start" x="684.748" y="-533.541" font-family="Times Roman,serif" font-size="14.00">_layout</text>
</g>
<!-- ApplicationController&#45;&gt;AppliancesController -->
<g id="edge2" class="edge"><title>ApplicationController&#45;&gt;AppliancesController</title>
<path fill="none" stroke="black" d="M513.623,-510.547C563.472,-531.257 627.175,-557.724 676.727,-578.31"/>
</g>
<!-- UsersController -->
<g id="node4" class="node"><title>UsersController</title>
<polyline fill="none" stroke="black" points="277.959,-48.7217 377.959,-48.7217 "/>
<path fill="none" stroke="black" d="M377.959,-48.7217C383.959,-48.7217 389.959,-54.7217 389.959,-60.7217"/>
<polyline fill="none" stroke="black" points="389.959,-60.7217 389.959,-192.722 "/>
<path fill="none" stroke="black" d="M389.959,-192.722C389.959,-198.722 383.959,-204.722 377.959,-204.722"/>
<polyline fill="none" stroke="black" points="377.959,-204.722 277.959,-204.722 "/>
<path fill="none" stroke="black" d="M277.959,-204.722C271.959,-204.722 265.959,-198.722 265.959,-192.722"/>
<polyline fill="none" stroke="black" points="265.959,-192.722 265.959,-60.7217 "/>
<path fill="none" stroke="black" d="M265.959,-60.7217C265.959,-54.7217 271.959,-48.7217 277.959,-48.7217"/>
<text text-anchor="middle" x="327.959" y="-188.122" font-family="Times Roman,serif" font-size="14.00">UsersController</text>
<polyline fill="none" stroke="black" points="265.959,-178.722 389.959,-178.722 "/>
<text text-anchor="start" x="273.959" y="-162.122" font-family="Times Roman,serif" font-size="14.00">destroy</text>
<text text-anchor="start" x="273.959" y="-144.122" font-family="Times Roman,serif" font-size="14.00">index</text>
<text text-anchor="start" x="273.959" y="-126.122" font-family="Times Roman,serif" font-size="14.00">show</text>
<text text-anchor="start" x="273.959" y="-108.122" font-family="Times Roman,serif" font-size="14.00">update</text>
<polyline fill="none" stroke="black" points="265.959,-98.7217 389.959,-98.7217 "/>
<polyline fill="none" stroke="black" points="265.959,-74.7217 389.959,-74.7217 "/>
<text text-anchor="start" x="273.959" y="-58.1217" font-family="Times Roman,serif" font-size="14.00">_layout</text>
</g>
<!-- ApplicationController&#45;&gt;UsersController -->
<g id="edge4" class="edge"><title>ApplicationController&#45;&gt;UsersController</title>
<path fill="none" stroke="black" d="M409.57,-398.872C392.244,-341.095 368.754,-262.763 351.424,-204.971"/>
</g>
<!-- ClassificationsController -->
<g id="node5" class="node"><title>ClassificationsController</title>
<polyline fill="none" stroke="black" points="17.461,-810.002 175.461,-810.002 "/>
<path fill="none" stroke="black" d="M175.461,-810.002C181.461,-810.002 187.461,-816.002 187.461,-822.002"/>
<polyline fill="none" stroke="black" points="187.461,-822.002 187.461,-936.002 "/>
<path fill="none" stroke="black" d="M187.461,-936.002C187.461,-942.002 181.461,-948.002 175.461,-948.002"/>
<polyline fill="none" stroke="black" points="175.461,-948.002 17.461,-948.002 "/>
<path fill="none" stroke="black" d="M17.461,-948.002C11.461,-948.002 5.46096,-942.002 5.46096,-936.002"/>
<polyline fill="none" stroke="black" points="5.46096,-936.002 5.46096,-822.002 "/>
<path fill="none" stroke="black" d="M5.46096,-822.002C5.46096,-816.002 11.461,-810.002 17.461,-810.002"/>
<text text-anchor="middle" x="96.461" y="-931.402" font-family="Times Roman,serif" font-size="14.00">ClassificationsController</text>
<polyline fill="none" stroke="black" points="5.46096,-922.002 187.461,-922.002 "/>
<text text-anchor="start" x="13.461" y="-905.402" font-family="Times Roman,serif" font-size="14.00">create</text>
<text text-anchor="start" x="13.461" y="-887.402" font-family="Times Roman,serif" font-size="14.00">index</text>
<text text-anchor="start" x="13.461" y="-869.402" font-family="Times Roman,serif" font-size="14.00">new</text>
<polyline fill="none" stroke="black" points="5.46096,-860.002 187.461,-860.002 "/>
<polyline fill="none" stroke="black" points="5.46096,-836.002 187.461,-836.002 "/>
<text text-anchor="start" x="13.461" y="-819.402" font-family="Times Roman,serif" font-size="14.00">_layout</text>
</g>
<!-- ApplicationController&#45;&gt;ClassificationsController -->
<g id="edge6" class="edge"><title>ApplicationController&#45;&gt;ClassificationsController</title>
<path fill="none" stroke="black" d="M367.326,-555.511C305.442,-629.419 213.625,-739.074 154.406,-809.799"/>
</g>
<!-- TypesController -->
<g id="node6" class="node"><title>TypesController</title>
<polyline fill="none" stroke="black" points="703.263,-774.61 834.263,-774.61 "/>
<path fill="none" stroke="black" d="M834.263,-774.61C840.263,-774.61 846.263,-780.61 846.263,-786.61"/>
<polyline fill="none" stroke="black" points="846.263,-786.61 846.263,-972.61 "/>
<path fill="none" stroke="black" d="M846.263,-972.61C846.263,-978.61 840.263,-984.61 834.263,-984.61"/>
<polyline fill="none" stroke="black" points="834.263,-984.61 703.263,-984.61 "/>
<path fill="none" stroke="black" d="M703.263,-984.61C697.263,-984.61 691.263,-978.61 691.263,-972.61"/>
<polyline fill="none" stroke="black" points="691.263,-972.61 691.263,-786.61 "/>
<path fill="none" stroke="black" d="M691.263,-786.61C691.263,-780.61 697.263,-774.61 703.263,-774.61"/>
<text text-anchor="middle" x="768.763" y="-968.01" font-family="Times Roman,serif" font-size="14.00">TypesController</text>
<polyline fill="none" stroke="black" points="691.263,-958.61 846.263,-958.61 "/>
<text text-anchor="start" x="699.263" y="-942.01" font-family="Times Roman,serif" font-size="14.00">_callback_before_11</text>
<text text-anchor="start" x="699.263" y="-924.01" font-family="Times Roman,serif" font-size="14.00">create</text>
<text text-anchor="start" x="699.263" y="-906.01" font-family="Times Roman,serif" font-size="14.00">destroy</text>
<text text-anchor="start" x="699.263" y="-888.01" font-family="Times Roman,serif" font-size="14.00">edit</text>
<text text-anchor="start" x="699.263" y="-870.01" font-family="Times Roman,serif" font-size="14.00">index</text>
<text text-anchor="start" x="699.263" y="-852.01" font-family="Times Roman,serif" font-size="14.00">new</text>
<text text-anchor="start" x="699.263" y="-834.01" font-family="Times Roman,serif" font-size="14.00">update</text>
<polyline fill="none" stroke="black" points="691.263,-824.61 846.263,-824.61 "/>
<polyline fill="none" stroke="black" points="691.263,-800.61 846.263,-800.61 "/>
<text text-anchor="start" x="699.263" y="-784.01" font-family="Times Roman,serif" font-size="14.00">_layout</text>
</g>
<!-- ApplicationController&#45;&gt;TypesController -->
<g id="edge8" class="edge"><title>ApplicationController&#45;&gt;TypesController</title>
<path fill="none" stroke="black" d="M498.15,-555.152C553.357,-621.343 632.65,-716.414 691.142,-786.544"/>
</g>
<!-- AttachmentsController -->
<g id="node9" class="node"><title>AttachmentsController</title>
<polyline fill="none" stroke="black" points="357.429,-772.934 507.429,-772.934 "/>
<path fill="none" stroke="black" d="M507.429,-772.934C513.429,-772.934 519.429,-778.934 519.429,-784.934"/>
<polyline fill="none" stroke="black" points="519.429,-784.934 519.429,-880.934 "/>
<path fill="none" stroke="black" d="M519.429,-880.934C519.429,-886.934 513.429,-892.934 507.429,-892.934"/>
<polyline fill="none" stroke="black" points="507.429,-892.934 357.429,-892.934 "/>
<path fill="none" stroke="black" d="M357.429,-892.934C351.429,-892.934 345.429,-886.934 345.429,-880.934"/>
<polyline fill="none" stroke="black" points="345.429,-880.934 345.429,-784.934 "/>
<path fill="none" stroke="black" d="M345.429,-784.934C345.429,-778.934 351.429,-772.934 357.429,-772.934"/>
<text text-anchor="middle" x="432.429" y="-876.334" font-family="Times Roman,serif" font-size="14.00">AttachmentsController</text>
<polyline fill="none" stroke="black" points="345.429,-866.934 519.429,-866.934 "/>
<text text-anchor="start" x="353.429" y="-850.334" font-family="Times Roman,serif" font-size="14.00">create</text>
<text text-anchor="start" x="353.429" y="-832.334" font-family="Times Roman,serif" font-size="14.00">destroy</text>
<polyline fill="none" stroke="black" points="345.429,-822.934 519.429,-822.934 "/>
<polyline fill="none" stroke="black" points="345.429,-798.934 519.429,-798.934 "/>
<text text-anchor="start" x="353.429" y="-782.334" font-family="Times Roman,serif" font-size="14.00">_layout</text>
</g>
<!-- ApplicationController&#45;&gt;AttachmentsController -->
<g id="edge14" class="edge"><title>ApplicationController&#45;&gt;AttachmentsController</title>
<path fill="none" stroke="black" d="M432.888,-555.157C432.78,-620.631 432.628,-712.769 432.529,-772.666"/>
</g>
<!-- EntriesController -->
<g id="node10" class="node"><title>EntriesController</title>
<polyline fill="none" stroke="black" points="26.0866,-236.591 157.087,-236.591 "/>
<path fill="none" stroke="black" d="M157.087,-236.591C163.087,-236.591 169.087,-242.591 169.087,-248.591"/>
<polyline fill="none" stroke="black" points="169.087,-248.591 169.087,-506.591 "/>
<path fill="none" stroke="black" d="M169.087,-506.591C169.087,-512.591 163.087,-518.591 157.087,-518.591"/>
<polyline fill="none" stroke="black" points="157.087,-518.591 26.0866,-518.591 "/>
<path fill="none" stroke="black" d="M26.0866,-518.591C20.0866,-518.591 14.0866,-512.591 14.0866,-506.591"/>
<polyline fill="none" stroke="black" points="14.0866,-506.591 14.0866,-248.591 "/>
<path fill="none" stroke="black" d="M14.0866,-248.591C14.0866,-242.591 20.0866,-236.591 26.0866,-236.591"/>
<text text-anchor="middle" x="91.5866" y="-501.991" font-family="Times Roman,serif" font-size="14.00">EntriesController</text>
<polyline fill="none" stroke="black" points="14.0866,-492.591 169.087,-492.591 "/>
<text text-anchor="start" x="22.0866" y="-475.991" font-family="Times Roman,serif" font-size="14.00">_callback_before_14</text>
<text text-anchor="start" x="22.0866" y="-457.991" font-family="Times Roman,serif" font-size="14.00">create</text>
<text text-anchor="start" x="22.0866" y="-439.991" font-family="Times Roman,serif" font-size="14.00">destroy</text>
<text text-anchor="start" x="22.0866" y="-421.991" font-family="Times Roman,serif" font-size="14.00">edit</text>
<text text-anchor="start" x="22.0866" y="-403.991" font-family="Times Roman,serif" font-size="14.00">index</text>
<text text-anchor="start" x="22.0866" y="-385.991" font-family="Times Roman,serif" font-size="14.00">new</text>
<text text-anchor="start" x="22.0866" y="-367.991" font-family="Times Roman,serif" font-size="14.00">show</text>
<text text-anchor="start" x="22.0866" y="-349.991" font-family="Times Roman,serif" font-size="14.00">sticker</text>
<text text-anchor="start" x="22.0866" y="-331.991" font-family="Times Roman,serif" font-size="14.00">ticket</text>
<text text-anchor="start" x="22.0866" y="-313.991" font-family="Times Roman,serif" font-size="14.00">update</text>
<text text-anchor="start" x="22.0866" y="-295.991" font-family="Times Roman,serif" font-size="14.00">zip</text>
<polyline fill="none" stroke="black" points="14.0866,-286.591 169.087,-286.591 "/>
<polyline fill="none" stroke="black" points="14.0866,-262.591 169.087,-262.591 "/>
<text text-anchor="start" x="22.0866" y="-245.991" font-family="Times Roman,serif" font-size="14.00">_layout</text>
</g>
<!-- ApplicationController&#45;&gt;EntriesController -->
<g id="edge16" class="edge"><title>ApplicationController&#45;&gt;EntriesController</title>
<path fill="none" stroke="black" d="M352.102,-453.486C296.788,-437.372 223.89,-416.135 169.278,-400.225"/>
</g>
<!-- InvoicesController -->
<g id="node11" class="node"><title>InvoicesController</title>
<polyline fill="none" stroke="black" points="708.618,-282.978 839.618,-282.978 "/>
<path fill="none" stroke="black" d="M839.618,-282.978C845.618,-282.978 851.618,-288.978 851.618,-294.978"/>
<polyline fill="none" stroke="black" points="851.618,-294.978 851.618,-462.978 "/>
<path fill="none" stroke="black" d="M851.618,-462.978C851.618,-468.978 845.618,-474.978 839.618,-474.978"/>
<polyline fill="none" stroke="black" points="839.618,-474.978 708.618,-474.978 "/>
<path fill="none" stroke="black" d="M708.618,-474.978C702.618,-474.978 696.618,-468.978 696.618,-462.978"/>
<polyline fill="none" stroke="black" points="696.618,-462.978 696.618,-294.978 "/>
<path fill="none" stroke="black" d="M696.618,-294.978C696.618,-288.978 702.618,-282.978 708.618,-282.978"/>
<text text-anchor="middle" x="774.118" y="-458.378" font-family="Times Roman,serif" font-size="14.00">InvoicesController</text>
<polyline fill="none" stroke="black" points="696.618,-448.978 851.618,-448.978 "/>
<text text-anchor="start" x="704.618" y="-432.378" font-family="Times Roman,serif" font-size="14.00">_callback_before_15</text>
<text text-anchor="start" x="704.618" y="-414.378" font-family="Times Roman,serif" font-size="14.00">create</text>
<text text-anchor="start" x="704.618" y="-396.378" font-family="Times Roman,serif" font-size="14.00">destroy</text>
<text text-anchor="start" x="704.618" y="-378.378" font-family="Times Roman,serif" font-size="14.00">index</text>
<text text-anchor="start" x="704.618" y="-360.378" font-family="Times Roman,serif" font-size="14.00">new</text>
<text text-anchor="start" x="704.618" y="-342.378" font-family="Times Roman,serif" font-size="14.00">show</text>
<polyline fill="none" stroke="black" points="696.618,-332.978 851.618,-332.978 "/>
<polyline fill="none" stroke="black" points="696.618,-308.978 851.618,-308.978 "/>
<text text-anchor="start" x="704.618" y="-292.378" font-family="Times Roman,serif" font-size="14.00">_layout</text>
</g>
<!-- ApplicationController&#45;&gt;InvoicesController -->
<g id="edge18" class="edge"><title>ApplicationController&#45;&gt;InvoicesController</title>
<path fill="none" stroke="black" d="M513.853,-453.815C569.114,-437.925 641.941,-416.984 696.502,-401.296"/>
</g>
<!-- HomeController -->
<g id="node12" class="node"><title>HomeController</title>
<polyline fill="none" stroke="black" points="13,-1.5 114,-1.5 "/>
<path fill="none" stroke="black" d="M114,-1.5C120,-1.5 126,-7.5 126,-13.5"/>
<polyline fill="none" stroke="black" points="126,-13.5 126,-163.5 "/>
<path fill="none" stroke="black" d="M126,-163.5C126,-169.5 120,-175.5 114,-175.5"/>
<polyline fill="none" stroke="black" points="114,-175.5 13,-175.5 "/>
<path fill="none" stroke="black" d="M13,-175.5C7,-175.5 1,-169.5 1,-163.5"/>
<polyline fill="none" stroke="black" points="1,-163.5 1,-13.5 "/>
<path fill="none" stroke="black" d="M1,-13.5C1,-7.5 7,-1.5 13,-1.5"/>
<text text-anchor="middle" x="63.5" y="-158.9" font-family="Times Roman,serif" font-size="14.00">HomeController</text>
<polyline fill="none" stroke="black" points="1,-149.5 126,-149.5 "/>
<text text-anchor="start" x="9" y="-132.9" font-family="Times Roman,serif" font-size="14.00">batch</text>
<text text-anchor="start" x="9" y="-114.9" font-family="Times Roman,serif" font-size="14.00">batch_update</text>
<text text-anchor="start" x="9" y="-96.9" font-family="Times Roman,serif" font-size="14.00">index</text>
<text text-anchor="start" x="9" y="-78.9" font-family="Times Roman,serif" font-size="14.00">report</text>
<text text-anchor="start" x="9" y="-60.9" font-family="Times Roman,serif" font-size="14.00">send_report</text>
<polyline fill="none" stroke="black" points="1,-51.5 126,-51.5 "/>
<polyline fill="none" stroke="black" points="1,-27.5 126,-27.5 "/>
<text text-anchor="start" x="9" y="-10.9" font-family="Times Roman,serif" font-size="14.00">_layout</text>
</g>
<!-- ApplicationController&#45;&gt;HomeController -->
<g id="edge20" class="edge"><title>ApplicationController&#45;&gt;HomeController</title>
<path fill="none" stroke="black" d="M358.684,-398.895C290.4,-327.093 190.331,-221.867 126.049,-154.273"/>
</g>
<!-- StatsController -->
<g id="node13" class="node"><title>StatsController</title>
<polyline fill="none" stroke="black" points="490.218,-75.0846 588.218,-75.0846 "/>
<path fill="none" stroke="black" d="M588.218,-75.0846C594.218,-75.0846 600.218,-81.0846 600.218,-87.0846"/>
<polyline fill="none" stroke="black" points="600.218,-87.0846 600.218,-165.085 "/>
<path fill="none" stroke="black" d="M600.218,-165.085C600.218,-171.085 594.218,-177.085 588.218,-177.085"/>
<polyline fill="none" stroke="black" points="588.218,-177.085 490.218,-177.085 "/>
<path fill="none" stroke="black" d="M490.218,-177.085C484.218,-177.085 478.218,-171.085 478.218,-165.085"/>
<polyline fill="none" stroke="black" points="478.218,-165.085 478.218,-87.0846 "/>
<path fill="none" stroke="black" d="M478.218,-87.0846C478.218,-81.0846 484.218,-75.0846 490.218,-75.0846"/>
<text text-anchor="middle" x="539.218" y="-160.485" font-family="Times Roman,serif" font-size="14.00">StatsController</text>
<polyline fill="none" stroke="black" points="478.218,-151.085 600.218,-151.085 "/>
<text text-anchor="start" x="486.218" y="-134.485" font-family="Times Roman,serif" font-size="14.00">index</text>
<polyline fill="none" stroke="black" points="478.218,-125.085 600.218,-125.085 "/>
<polyline fill="none" stroke="black" points="478.218,-101.085 600.218,-101.085 "/>
<text text-anchor="start" x="486.218" y="-84.4846" font-family="Times Roman,serif" font-size="14.00">_layout</text>
</g>
<!-- ApplicationController&#45;&gt;StatsController -->
<g id="edge22" class="edge"><title>ApplicationController&#45;&gt;StatsController</title>
<path fill="none" stroke="black" d="M456.718,-398.73C477.167,-331.15 506.11,-235.501 523.72,-177.303"/>
</g>
<!-- BroadcastsController -->
<g id="node14" class="node"><title>BroadcastsController</title>
<polyline fill="none" stroke="black" points="734.607,-2.29236 871.607,-2.29236 "/>
<path fill="none" stroke="black" d="M871.607,-2.29236C877.607,-2.29236 883.607,-8.29236 883.607,-14.2924"/>
<polyline fill="none" stroke="black" points="883.607,-14.2924 883.607,-164.292 "/>
<path fill="none" stroke="black" d="M883.607,-164.292C883.607,-170.292 877.607,-176.292 871.607,-176.292"/>
<polyline fill="none" stroke="black" points="871.607,-176.292 734.607,-176.292 "/>
<path fill="none" stroke="black" d="M734.607,-176.292C728.607,-176.292 722.607,-170.292 722.607,-164.292"/>
<polyline fill="none" stroke="black" points="722.607,-164.292 722.607,-14.2924 "/>
<path fill="none" stroke="black" d="M722.607,-14.2924C722.607,-8.29236 728.607,-2.29236 734.607,-2.29236"/>
<text text-anchor="middle" x="803.107" y="-159.692" font-family="Times Roman,serif" font-size="14.00">BroadcastsController</text>
<polyline fill="none" stroke="black" points="722.607,-150.292 883.607,-150.292 "/>
<text text-anchor="start" x="730.607" y="-133.692" font-family="Times Roman,serif" font-size="14.00">create</text>
<text text-anchor="start" x="730.607" y="-115.692" font-family="Times Roman,serif" font-size="14.00">destroy</text>
<text text-anchor="start" x="730.607" y="-97.6924" font-family="Times Roman,serif" font-size="14.00">disable</text>
<text text-anchor="start" x="730.607" y="-79.6924" font-family="Times Roman,serif" font-size="14.00">index</text>
<text text-anchor="start" x="730.607" y="-61.6924" font-family="Times Roman,serif" font-size="14.00">new</text>
<polyline fill="none" stroke="black" points="722.607,-52.2924 883.607,-52.2924 "/>
<polyline fill="none" stroke="black" points="722.607,-28.2924 883.607,-28.2924 "/>
<text text-anchor="start" x="730.607" y="-11.6924" font-family="Times Roman,serif" font-size="14.00">_layout</text>
</g>
<!-- ApplicationController&#45;&gt;BroadcastsController -->
<g id="edge24" class="edge"><title>ApplicationController&#45;&gt;BroadcastsController</title>
<path fill="none" stroke="black" d="M507.465,-399.055C569.733,-333.812 658.393,-240.919 722.36,-173.896"/>
</g>
<!-- CompaniesController -->
<g id="node15" class="node"><title>CompaniesController</title>
<polyline fill="none" stroke="black" points="41.4221,-531.779 178.422,-531.779 "/>
<path fill="none" stroke="black" d="M178.422,-531.779C184.422,-531.779 190.422,-537.779 190.422,-543.779"/>
<polyline fill="none" stroke="black" points="190.422,-543.779 190.422,-675.779 "/>
<path fill="none" stroke="black" d="M190.422,-675.779C190.422,-681.779 184.422,-687.779 178.422,-687.779"/>
<polyline fill="none" stroke="black" points="178.422,-687.779 41.4221,-687.779 "/>
<path fill="none" stroke="black" d="M41.4221,-687.779C35.4221,-687.779 29.4221,-681.779 29.4221,-675.779"/>
<polyline fill="none" stroke="black" points="29.4221,-675.779 29.4221,-543.779 "/>
<path fill="none" stroke="black" d="M29.4221,-543.779C29.4221,-537.779 35.4221,-531.779 41.4221,-531.779"/>
<text text-anchor="middle" x="109.922" y="-671.179" font-family="Times Roman,serif" font-size="14.00">CompaniesController</text>
<polyline fill="none" stroke="black" points="29.4221,-661.779 190.422,-661.779 "/>
<text text-anchor="start" x="37.4221" y="-645.179" font-family="Times Roman,serif" font-size="14.00">create</text>
<text text-anchor="start" x="37.4221" y="-627.179" font-family="Times Roman,serif" font-size="14.00">destroy</text>
<text text-anchor="start" x="37.4221" y="-609.179" font-family="Times Roman,serif" font-size="14.00">index</text>
<text text-anchor="start" x="37.4221" y="-591.179" font-family="Times Roman,serif" font-size="14.00">new</text>
<polyline fill="none" stroke="black" points="29.4221,-581.779 190.422,-581.779 "/>
<polyline fill="none" stroke="black" points="29.4221,-557.779 190.422,-557.779 "/>
<text text-anchor="start" x="37.4221" y="-541.179" font-family="Times Roman,serif" font-size="14.00">_layout</text>
</g>
<!-- ApplicationController&#45;&gt;CompaniesController -->
<g id="edge26" class="edge"><title>ApplicationController&#45;&gt;CompaniesController</title>
<path fill="none" stroke="black" d="M352.32,-510.207C302.882,-530.515 239.833,-556.414 190.43,-576.708"/>
</g>
<!-- RegistrationsController -->
<g id="node7" class="node"><title>RegistrationsController</title>
<polyline fill="none" stroke="black" points="973,-10.5 1141,-10.5 "/>
<path fill="none" stroke="black" d="M1141,-10.5C1147,-10.5 1153,-16.5 1153,-22.5"/>
<polyline fill="none" stroke="black" points="1153,-22.5 1153,-100.5 "/>
<path fill="none" stroke="black" d="M1153,-100.5C1153,-106.5 1147,-112.5 1141,-112.5"/>
<polyline fill="none" stroke="black" points="1141,-112.5 973,-112.5 "/>
<path fill="none" stroke="black" d="M973,-112.5C967,-112.5 961,-106.5 961,-100.5"/>
<polyline fill="none" stroke="black" points="961,-100.5 961,-22.5 "/>
<path fill="none" stroke="black" d="M961,-22.5C961,-16.5 967,-10.5 973,-10.5"/>
<text text-anchor="middle" x="1057" y="-95.9" font-family="Times Roman,serif" font-size="14.00">RegistrationsController</text>
<polyline fill="none" stroke="black" points="961,-86.5 1153,-86.5 "/>
<text text-anchor="start" x="969" y="-69.9" font-family="Times Roman,serif" font-size="14.00">update_sanitized_params</text>
<polyline fill="none" stroke="black" points="961,-60.5 1153,-60.5 "/>
<polyline fill="none" stroke="black" points="961,-36.5 1153,-36.5 "/>
<text text-anchor="start" x="969" y="-19.9" font-family="Times Roman,serif" font-size="14.00">_layout</text>
</g>
<!-- Users::RegistrationsController -->
<g id="node8" class="node"><title>Users::RegistrationsController</title>
<polyline fill="none" stroke="black" points="1560.99,-1.5 1759.99,-1.5 "/>
<path fill="none" stroke="black" d="M1759.99,-1.5C1765.99,-1.5 1771.99,-7.5 1771.99,-13.5"/>
<polyline fill="none" stroke="black" points="1771.99,-13.5 1771.99,-109.5 "/>
<path fill="none" stroke="black" d="M1771.99,-109.5C1771.99,-115.5 1765.99,-121.5 1759.99,-121.5"/>
<polyline fill="none" stroke="black" points="1759.99,-121.5 1560.99,-121.5 "/>
<path fill="none" stroke="black" d="M1560.99,-121.5C1554.99,-121.5 1548.99,-115.5 1548.99,-109.5"/>
<polyline fill="none" stroke="black" points="1548.99,-109.5 1548.99,-13.5 "/>
<path fill="none" stroke="black" d="M1548.99,-13.5C1548.99,-7.5 1554.99,-1.5 1560.99,-1.5"/>
<text text-anchor="middle" x="1660.49" y="-104.9" font-family="Times Roman,serif" font-size="14.00">Users::RegistrationsController</text>
<polyline fill="none" stroke="black" points="1548.99,-95.5 1771.99,-95.5 "/>
<text text-anchor="start" x="1556.99" y="-78.9" font-family="Times Roman,serif" font-size="14.00">_callback_before_12</text>
<text text-anchor="start" x="1556.99" y="-60.9" font-family="Times Roman,serif" font-size="14.00">_callback_before_13</text>
<polyline fill="none" stroke="black" points="1548.99,-51.5 1771.99,-51.5 "/>
<polyline fill="none" stroke="black" points="1548.99,-27.5 1771.99,-27.5 "/>
<text text-anchor="start" x="1556.99" y="-10.9" font-family="Times Roman,serif" font-size="14.00">_layout</text>
</g>
<!-- Devise::RegistrationsController -->
<g id="node20" class="node"><title>Devise::RegistrationsController</title>
<ellipse fill="none" stroke="black" cx="1358.59" cy="-61.4999" rx="162.842" ry="18.3848"/>
<text text-anchor="middle" x="1358.59" y="-57.8999" font-family="Times Roman,serif" font-size="14.00">Devise::RegistrationsController</text>
</g>
<!-- Devise::RegistrationsController&#45;&gt;RegistrationsController -->
<g id="edge10" class="edge"><title>Devise::RegistrationsController&#45;&gt;RegistrationsController</title>
<path fill="none" stroke="black" d="M1195.44,-61.5C1181,-61.5 1166.72,-61.5 1153.12,-61.5"/>
</g>
<!-- Devise::RegistrationsController&#45;&gt;Users::RegistrationsController -->
<g id="edge12" class="edge"><title>Devise::RegistrationsController&#45;&gt;Users::RegistrationsController</title>
<path fill="none" stroke="black" d="M1521.91,-61.5C1530.94,-61.5 1539.91,-61.5 1548.69,-61.5"/>
</g>
</g>
</svg>
