<?xml version="1.0" encoding="UTF-8" standalone="no"?>
<!DOCTYPE svg PUBLIC "-//W3C//DTD SVG 1.1//EN"
 "http://www.w3.org/Graphics/SVG/1.1/DTD/svg11.dtd">
<!-- Generated by graphviz version 2.26.3 (20100126.1600)
 -->
<!-- Title: models_diagram Pages: 1 -->
<svg width="1552pt" height="1074pt"
 viewBox="0.00 0.00 1552.09 1074.00" xmlns="http://www.w3.org/2000/svg" xmlns:xlink="http://www.w3.org/1999/xlink">
<g id="graph1" class="graph" transform="scale(1 1) rotate(0) translate(4 1070)">
<title>models_diagram</title>
<polygon fill="white" stroke="white" points="-4,5 -4,-1070 1549.09,-1070 1549.09,5 -4,5"/>
<!-- _diagram_info -->
<g id="node1" class="node"><title>_diagram_info</title>
<text text-anchor="start" x="105.094" y="-1049.8" font-family="Times Roman,serif" font-size="13.00">Models diagram</text>
<text text-anchor="start" x="105.094" y="-1032.8" font-family="Times Roman,serif" font-size="13.00">Date: Feb 01 2014 &#45; 13:08</text>
<text text-anchor="start" x="105.094" y="-1015.8" font-family="Times Roman,serif" font-size="13.00">Migration version: 20140201120228</text>
<text text-anchor="start" x="105.094" y="-998.8" font-family="Times Roman,serif" font-size="13.00">Generated by RailRoady 1.1.1</text>
<text text-anchor="start" x="105.094" y="-981.8" font-family="Times Roman,serif" font-size="13.00">http://railroady.prestonlee.com</text>
</g>
<!-- Invoice -->
<g id="node2" class="node"><title>Invoice</title>
<polyline fill="none" stroke="black" points="75.5939,-406 216.594,-406 "/>
<path fill="none" stroke="black" d="M216.594,-406C222.594,-406 228.594,-412 228.594,-418"/>
<polyline fill="none" stroke="black" points="228.594,-418 228.594,-500 "/>
<path fill="none" stroke="black" d="M228.594,-500C228.594,-506 222.594,-512 216.594,-512"/>
<polyline fill="none" stroke="black" points="216.594,-512 75.5939,-512 "/>
<path fill="none" stroke="black" d="M75.5939,-512C69.5939,-512 63.5939,-506 63.5939,-500"/>
<polyline fill="none" stroke="black" points="63.5939,-500 63.5939,-418 "/>
<path fill="none" stroke="black" d="M63.5939,-418C63.5939,-412 69.5939,-406 75.5939,-406"/>
<text text-anchor="middle" x="146.094" y="-495.4" font-family="Times Roman,serif" font-size="14.00">Invoice</text>
<polyline fill="none" stroke="black" points="63.5939,-486 228.594,-486 "/>
<text text-anchor="start" x="71.5939" y="-469.4" font-family="Times Roman,serif" font-size="14.00">id :integer</text>
<text text-anchor="start" x="71.5939" y="-451.4" font-family="Times Roman,serif" font-size="14.00">created_at :datetime</text>
<text text-anchor="start" x="71.5939" y="-433.4" font-family="Times Roman,serif" font-size="14.00">updated_at :datetime</text>
<text text-anchor="start" x="71.5939" y="-415.4" font-family="Times Roman,serif" font-size="14.00">company_id :integer</text>
</g>
<!-- Ability -->
<g id="node3" class="node"><title>Ability</title>
<polygon fill="none" stroke="black" points="1471.09,-811 1471.09,-863 1531.09,-863 1531.09,-811 1471.09,-811"/>
<text text-anchor="middle" x="1501.09" y="-846.4" font-family="Times Roman,serif" font-size="14.00">Ability</text>
<polyline fill="none" stroke="black" points="1471.09,-837 1531.09,-837 "/>
<text text-anchor="middle" x="1501.09" y="-820.4" font-family="Times Roman,serif" font-size="14.00"> </text>
</g>
<!-- Company -->
<g id="node4" class="node"><title>Company</title>
<polyline fill="none" stroke="black" points="212.594,-757 353.594,-757 "/>
<path fill="none" stroke="black" d="M353.594,-757C359.594,-757 365.594,-763 365.594,-769"/>
<polyline fill="none" stroke="black" points="365.594,-769 365.594,-905 "/>
<path fill="none" stroke="black" d="M365.594,-905C365.594,-911 359.594,-917 353.594,-917"/>
<polyline fill="none" stroke="black" points="353.594,-917 212.594,-917 "/>
<path fill="none" stroke="black" d="M212.594,-917C206.594,-917 200.594,-911 200.594,-905"/>
<polyline fill="none" stroke="black" points="200.594,-905 200.594,-769 "/>
<path fill="none" stroke="black" d="M200.594,-769C200.594,-763 206.594,-757 212.594,-757"/>
<text text-anchor="middle" x="283.094" y="-900.4" font-family="Times Roman,serif" font-size="14.00">Company</text>
<polyline fill="none" stroke="black" points="200.594,-891 365.594,-891 "/>
<text text-anchor="start" x="208.594" y="-874.4" font-family="Times Roman,serif" font-size="14.00">id :integer</text>
<text text-anchor="start" x="208.594" y="-856.4" font-family="Times Roman,serif" font-size="14.00">title :string</text>
<text text-anchor="start" x="208.594" y="-838.4" font-family="Times Roman,serif" font-size="14.00">short :string</text>
<text text-anchor="start" x="208.594" y="-820.4" font-family="Times Roman,serif" font-size="14.00">created_at :datetime</text>
<text text-anchor="start" x="208.594" y="-802.4" font-family="Times Roman,serif" font-size="14.00">updated_at :datetime</text>
<text text-anchor="start" x="208.594" y="-784.4" font-family="Times Roman,serif" font-size="14.00">abb :string</text>
<text text-anchor="start" x="208.594" y="-766.4" font-family="Times Roman,serif" font-size="14.00">adress :string</text>
</g>
<!-- Company&#45;&gt;Invoice -->
<g id="edge8" class="edge"><title>Company&#45;&gt;Invoice</title>
<path fill="none" stroke="#e6bbf6" d="M251.175,-748.932C225.929,-679.275 191.302,-583.734 168.814,-521.687"/>
<ellipse fill="none" stroke="#e6bbf6" cx="252.677" cy="-753.075" rx="4.00001" ry="4.00001"/>
<polygon fill="#e6bbf6" stroke="#e6bbf6" points="168.72,-521.427 169.543,-510.492 167.016,-516.727 165.312,-512.026 165.312,-512.026 165.312,-512.026 167.016,-516.727 161.082,-513.559 168.72,-521.427 168.72,-521.427"/>
</g>
<!-- Entry -->
<g id="node5" class="node"><title>Entry</title>
<polyline fill="none" stroke="black" points="440.094,-217 604.094,-217 "/>
<path fill="none" stroke="black" d="M604.094,-217C610.094,-217 616.094,-223 616.094,-229"/>
<polyline fill="none" stroke="black" points="616.094,-229 616.094,-689 "/>
<path fill="none" stroke="black" d="M616.094,-689C616.094,-695 610.094,-701 604.094,-701"/>
<polyline fill="none" stroke="black" points="604.094,-701 440.094,-701 "/>
<path fill="none" stroke="black" d="M440.094,-701C434.094,-701 428.094,-695 428.094,-689"/>
<polyline fill="none" stroke="black" points="428.094,-689 428.094,-229 "/>
<path fill="none" stroke="black" d="M428.094,-229C428.094,-223 434.094,-217 440.094,-217"/>
<text text-anchor="middle" x="522.094" y="-684.4" font-family="Times Roman,serif" font-size="14.00">Entry</text>
<polyline fill="none" stroke="black" points="428.094,-675 616.094,-675 "/>
<text text-anchor="start" x="436.094" y="-658.4" font-family="Times Roman,serif" font-size="14.00">id :integer</text>
<text text-anchor="start" x="436.094" y="-640.4" font-family="Times Roman,serif" font-size="14.00">number :string</text>
<text text-anchor="start" x="436.094" y="-622.4" font-family="Times Roman,serif" font-size="14.00">brand :string</text>
<text text-anchor="start" x="436.094" y="-604.4" font-family="Times Roman,serif" font-size="14.00">typenum :string</text>
<text text-anchor="start" x="436.094" y="-586.4" font-family="Times Roman,serif" font-size="14.00">serialnum :string</text>
<text text-anchor="start" x="436.094" y="-568.4" font-family="Times Roman,serif" font-size="14.00">note :string</text>
<text text-anchor="start" x="436.094" y="-550.4" font-family="Times Roman,serif" font-size="14.00">created_at :datetime</text>
<text text-anchor="start" x="436.094" y="-532.4" font-family="Times Roman,serif" font-size="14.00">updated_at :datetime</text>
<text text-anchor="start" x="436.094" y="-514.4" font-family="Times Roman,serif" font-size="14.00">name :string</text>
<text text-anchor="start" x="436.094" y="-496.4" font-family="Times Roman,serif" font-size="14.00">defect :string</text>
<text text-anchor="start" x="436.094" y="-478.4" font-family="Times Roman,serif" font-size="14.00">ordered :string</text>
<text text-anchor="start" x="436.094" y="-460.4" font-family="Times Roman,serif" font-size="14.00">repaired :integer</text>
<text text-anchor="start" x="436.094" y="-442.4" font-family="Times Roman,serif" font-size="14.00">ready :integer</text>
<text text-anchor="start" x="436.094" y="-424.4" font-family="Times Roman,serif" font-size="14.00">scrap :integer</text>
<text text-anchor="start" x="436.094" y="-406.4" font-family="Times Roman,serif" font-size="14.00">accessoires :integer</text>
<text text-anchor="start" x="436.094" y="-388.4" font-family="Times Roman,serif" font-size="14.00">test :integer</text>
<text text-anchor="start" x="436.094" y="-370.4" font-family="Times Roman,serif" font-size="14.00">sent :integer</text>
<text text-anchor="start" x="436.094" y="-352.4" font-family="Times Roman,serif" font-size="14.00">invoice_id :integer</text>
<text text-anchor="start" x="436.094" y="-334.4" font-family="Times Roman,serif" font-size="14.00">repair :string</text>
<text text-anchor="start" x="436.094" y="-316.4" font-family="Times Roman,serif" font-size="14.00">testera :string</text>
<text text-anchor="start" x="436.094" y="-298.4" font-family="Times Roman,serif" font-size="14.00">testerb :string</text>
<text text-anchor="start" x="436.094" y="-280.4" font-family="Times Roman,serif" font-size="14.00">classifications_id :integer</text>
<text text-anchor="start" x="436.094" y="-262.4" font-family="Times Roman,serif" font-size="14.00">status :string</text>
<text text-anchor="start" x="436.094" y="-244.4" font-family="Times Roman,serif" font-size="14.00">company_id :integer</text>
<text text-anchor="start" x="436.094" y="-226.4" font-family="Times Roman,serif" font-size="14.00">type_id :integer</text>
</g>
<!-- Company&#45;&gt;Entry -->
<g id="edge6" class="edge"><title>Company&#45;&gt;Entry</title>
<path fill="none" stroke="#8d31fe" d="M371.517,-759.339C388.678,-741.61 405.524,-722.05 419.094,-702 420.226,-700.328 421.349,-698.642 422.463,-696.942"/>
<ellipse fill="none" stroke="#8d31fe" cx="368.49" cy="-762.423" rx="4.00002" ry="4.00002"/>
<polygon fill="#8d31fe" stroke="#8d31fe" points="422.58,-696.76 431.758,-690.759 425.273,-692.547 427.966,-688.335 427.966,-688.335 427.966,-688.335 425.273,-692.547 424.175,-685.911 422.58,-696.76 422.58,-696.76"/>
</g>
<!-- Type -->
<g id="node10" class="node"><title>Type</title>
<polyline fill="none" stroke="black" points="257.594,-352 398.594,-352 "/>
<path fill="none" stroke="black" d="M398.594,-352C404.594,-352 410.594,-358 410.594,-364"/>
<polyline fill="none" stroke="black" points="410.594,-364 410.594,-554 "/>
<path fill="none" stroke="black" d="M410.594,-554C410.594,-560 404.594,-566 398.594,-566"/>
<polyline fill="none" stroke="black" points="398.594,-566 257.594,-566 "/>
<path fill="none" stroke="black" d="M257.594,-566C251.594,-566 245.594,-560 245.594,-554"/>
<polyline fill="none" stroke="black" points="245.594,-554 245.594,-364 "/>
<path fill="none" stroke="black" d="M245.594,-364C245.594,-358 251.594,-352 257.594,-352"/>
<text text-anchor="middle" x="328.094" y="-549.4" font-family="Times Roman,serif" font-size="14.00">Type</text>
<polyline fill="none" stroke="black" points="245.594,-540 410.594,-540 "/>
<text text-anchor="start" x="253.594" y="-523.4" font-family="Times Roman,serif" font-size="14.00">id :integer</text>
<text text-anchor="start" x="253.594" y="-505.4" font-family="Times Roman,serif" font-size="14.00">brand :string</text>
<text text-anchor="start" x="253.594" y="-487.4" font-family="Times Roman,serif" font-size="14.00">created_at :datetime</text>
<text text-anchor="start" x="253.594" y="-469.4" font-family="Times Roman,serif" font-size="14.00">updated_at :datetime</text>
<text text-anchor="start" x="253.594" y="-451.4" font-family="Times Roman,serif" font-size="14.00">company_id :integer</text>
<text text-anchor="start" x="253.594" y="-433.4" font-family="Times Roman,serif" font-size="14.00">typenum :string</text>
<text text-anchor="start" x="253.594" y="-415.4" font-family="Times Roman,serif" font-size="14.00">test_price :decimal</text>
<text text-anchor="start" x="253.594" y="-397.4" font-family="Times Roman,serif" font-size="14.00">repair_price :decimal</text>
<text text-anchor="start" x="253.594" y="-379.4" font-family="Times Roman,serif" font-size="14.00">scrap_price :decimal</text>
<text text-anchor="start" x="253.594" y="-361.4" font-family="Times Roman,serif" font-size="14.00">appliance_id :integer</text>
</g>
<!-- Company&#45;&gt;Type -->
<g id="edge10" class="edge"><title>Company&#45;&gt;Type</title>
<path fill="none" stroke="#bc2447" d="M293.62,-748.577C299.724,-697.309 307.486,-632.109 314.098,-576.562"/>
<ellipse fill="none" stroke="#bc2447" cx="293.11" cy="-752.864" rx="4.00001" ry="4.00001"/>
<polygon fill="#bc2447" stroke="#bc2447" points="314.137,-576.238 319.788,-566.841 314.728,-571.273 315.319,-566.309 315.319,-566.309 315.319,-566.309 314.728,-571.273 310.851,-565.777 314.137,-576.238 314.137,-576.238"/>
</g>
<!-- Attachment -->
<g id="node8" class="node"><title>Attachment</title>
<polyline fill="none" stroke="black" points="182.594,-1 375.594,-1 "/>
<path fill="none" stroke="black" d="M375.594,-1C381.594,-1 387.594,-7 387.594,-13"/>
<polyline fill="none" stroke="black" points="387.594,-13 387.594,-167 "/>
<path fill="none" stroke="black" d="M387.594,-167C387.594,-173 381.594,-179 375.594,-179"/>
<polyline fill="none" stroke="black" points="375.594,-179 182.594,-179 "/>
<path fill="none" stroke="black" d="M182.594,-179C176.594,-179 170.594,-173 170.594,-167"/>
<polyline fill="none" stroke="black" points="170.594,-167 170.594,-13 "/>
<path fill="none" stroke="black" d="M170.594,-13C170.594,-7 176.594,-1 182.594,-1"/>
<text text-anchor="middle" x="279.094" y="-162.4" font-family="Times Roman,serif" font-size="14.00">Attachment</text>
<polyline fill="none" stroke="black" points="170.594,-153 387.594,-153 "/>
<text text-anchor="start" x="178.594" y="-136.4" font-family="Times Roman,serif" font-size="14.00">id :integer</text>
<text text-anchor="start" x="178.594" y="-118.4" font-family="Times Roman,serif" font-size="14.00">entry_id :integer</text>
<text text-anchor="start" x="178.594" y="-100.4" font-family="Times Roman,serif" font-size="14.00">created_at :datetime</text>
<text text-anchor="start" x="178.594" y="-82.4" font-family="Times Roman,serif" font-size="14.00">updated_at :datetime</text>
<text text-anchor="start" x="178.594" y="-64.4" font-family="Times Roman,serif" font-size="14.00">attach_file_name :string</text>
<text text-anchor="start" x="178.594" y="-46.4" font-family="Times Roman,serif" font-size="14.00">attach_content_type :string</text>
<text text-anchor="start" x="178.594" y="-28.4" font-family="Times Roman,serif" font-size="14.00">attach_file_size :integer</text>
<text text-anchor="start" x="178.594" y="-10.4" font-family="Times Roman,serif" font-size="14.00">attach_updated_at :datetime</text>
</g>
<!-- Entry&#45;&gt;Attachment -->
<g id="edge14" class="edge"><title>Entry&#45;&gt;Attachment</title>
<path fill="none" stroke="#81527a" d="M423.352,-222.101C421.947,-220.045 420.528,-218.011 419.094,-216 411.757,-205.71 403.444,-195.655 394.617,-185.999"/>
<ellipse fill="none" stroke="#81527a" cx="425.849" cy="-225.841" rx="4.00002" ry="4.00002"/>
<polygon fill="#81527a" stroke="#81527a" points="394.612,-185.994 391.059,-175.619 391.193,-182.345 387.775,-178.696 387.775,-178.696 387.775,-178.696 391.193,-182.345 384.491,-181.772 394.612,-185.994 394.612,-185.994"/>
</g>
<!-- Role -->
<g id="node6" class="node"><title>Role</title>
<polyline fill="none" stroke="black" points="690.594,-766 831.594,-766 "/>
<path fill="none" stroke="black" d="M831.594,-766C837.594,-766 843.594,-772 843.594,-778"/>
<polyline fill="none" stroke="black" points="843.594,-778 843.594,-896 "/>
<path fill="none" stroke="black" d="M843.594,-896C843.594,-902 837.594,-908 831.594,-908"/>
<polyline fill="none" stroke="black" points="831.594,-908 690.594,-908 "/>
<path fill="none" stroke="black" d="M690.594,-908C684.594,-908 678.594,-902 678.594,-896"/>
<polyline fill="none" stroke="black" points="678.594,-896 678.594,-778 "/>
<path fill="none" stroke="black" d="M678.594,-778C678.594,-772 684.594,-766 690.594,-766"/>
<text text-anchor="middle" x="761.094" y="-891.4" font-family="Times Roman,serif" font-size="14.00">Role</text>
<polyline fill="none" stroke="black" points="678.594,-882 843.594,-882 "/>
<text text-anchor="start" x="686.594" y="-865.4" font-family="Times Roman,serif" font-size="14.00">id :integer</text>
<text text-anchor="start" x="686.594" y="-847.4" font-family="Times Roman,serif" font-size="14.00">name :string</text>
<text text-anchor="start" x="686.594" y="-829.4" font-family="Times Roman,serif" font-size="14.00">resource_id :integer</text>
<text text-anchor="start" x="686.594" y="-811.4" font-family="Times Roman,serif" font-size="14.00">resource_type :string</text>
<text text-anchor="start" x="686.594" y="-793.4" font-family="Times Roman,serif" font-size="14.00">created_at :datetime</text>
<text text-anchor="start" x="686.594" y="-775.4" font-family="Times Roman,serif" font-size="14.00">updated_at :datetime</text>
</g>
<!-- User -->
<g id="node9" class="node"><title>User</title>
<polyline fill="none" stroke="black" points="646.094,-307 876.094,-307 "/>
<path fill="none" stroke="black" d="M876.094,-307C882.094,-307 888.094,-313 888.094,-319"/>
<polyline fill="none" stroke="black" points="888.094,-319 888.094,-599 "/>
<path fill="none" stroke="black" d="M888.094,-599C888.094,-605 882.094,-611 876.094,-611"/>
<polyline fill="none" stroke="black" points="876.094,-611 646.094,-611 "/>
<path fill="none" stroke="black" d="M646.094,-611C640.094,-611 634.094,-605 634.094,-599"/>
<polyline fill="none" stroke="black" points="634.094,-599 634.094,-319 "/>
<path fill="none" stroke="black" d="M634.094,-319C634.094,-313 640.094,-307 646.094,-307"/>
<text text-anchor="middle" x="761.094" y="-594.4" font-family="Times Roman,serif" font-size="14.00">User</text>
<polyline fill="none" stroke="black" points="634.094,-585 888.094,-585 "/>
<text text-anchor="start" x="642.094" y="-568.4" font-family="Times Roman,serif" font-size="14.00">id :integer</text>
<text text-anchor="start" x="642.094" y="-550.4" font-family="Times Roman,serif" font-size="14.00">email :string</text>
<text text-anchor="start" x="642.094" y="-532.4" font-family="Times Roman,serif" font-size="14.00">encrypted_password :string</text>
<text text-anchor="start" x="642.094" y="-514.4" font-family="Times Roman,serif" font-size="14.00">reset_password_token :string</text>
<text text-anchor="start" x="642.094" y="-496.4" font-family="Times Roman,serif" font-size="14.00">reset_password_sent_at :datetime</text>
<text text-anchor="start" x="642.094" y="-478.4" font-family="Times Roman,serif" font-size="14.00">remember_created_at :datetime</text>
<text text-anchor="start" x="642.094" y="-460.4" font-family="Times Roman,serif" font-size="14.00">sign_in_count :integer</text>
<text text-anchor="start" x="642.094" y="-442.4" font-family="Times Roman,serif" font-size="14.00">current_sign_in_at :datetime</text>
<text text-anchor="start" x="642.094" y="-424.4" font-family="Times Roman,serif" font-size="14.00">last_sign_in_at :datetime</text>
<text text-anchor="start" x="642.094" y="-406.4" font-family="Times Roman,serif" font-size="14.00">current_sign_in_ip :string</text>
<text text-anchor="start" x="642.094" y="-388.4" font-family="Times Roman,serif" font-size="14.00">last_sign_in_ip :string</text>
<text text-anchor="start" x="642.094" y="-370.4" font-family="Times Roman,serif" font-size="14.00">created_at :datetime</text>
<text text-anchor="start" x="642.094" y="-352.4" font-family="Times Roman,serif" font-size="14.00">updated_at :datetime</text>
<text text-anchor="start" x="642.094" y="-334.4" font-family="Times Roman,serif" font-size="14.00">name :string</text>
<text text-anchor="start" x="642.094" y="-316.4" font-family="Times Roman,serif" font-size="14.00">language :string</text>
</g>
<!-- Role&#45;&gt;User -->
<g id="edge18" class="edge"><title>Role&#45;&gt;User</title>
<path fill="none" stroke="#d018a2" d="M761.094,-755.697C761.094,-716.407 761.094,-667.799 761.094,-621.377"/>
<polygon fill="#d018a2" stroke="#d018a2" points="761.094,-755.901 756.594,-765.901 761.094,-760.901 761.094,-765.901 761.094,-765.901 761.094,-765.901 761.094,-760.901 765.594,-765.901 761.094,-755.901 761.094,-755.901"/>
<polygon fill="#d018a2" stroke="#d018a2" points="761.094,-621.198 765.594,-611.198 761.094,-616.198 761.094,-611.198 761.094,-611.198 761.094,-611.198 761.094,-616.198 756.594,-611.198 761.094,-621.198 761.094,-621.198"/>
</g>
<!-- Stats -->
<g id="node7" class="node"><title>Stats</title>
<polyline fill="none" stroke="black" points="508.594,-793 649.594,-793 "/>
<path fill="none" stroke="black" d="M649.594,-793C655.594,-793 661.594,-799 661.594,-805"/>
<polyline fill="none" stroke="black" points="661.594,-805 661.594,-869 "/>
<path fill="none" stroke="black" d="M661.594,-869C661.594,-875 655.594,-881 649.594,-881"/>
<polyline fill="none" stroke="black" points="649.594,-881 508.594,-881 "/>
<path fill="none" stroke="black" d="M508.594,-881C502.594,-881 496.594,-875 496.594,-869"/>
<polyline fill="none" stroke="black" points="496.594,-869 496.594,-805 "/>
<path fill="none" stroke="black" d="M496.594,-805C496.594,-799 502.594,-793 508.594,-793"/>
<text text-anchor="middle" x="579.094" y="-864.4" font-family="Times Roman,serif" font-size="14.00">Stats</text>
<polyline fill="none" stroke="black" points="496.594,-855 661.594,-855 "/>
<text text-anchor="start" x="504.594" y="-838.4" font-family="Times Roman,serif" font-size="14.00">id :integer</text>
<text text-anchor="start" x="504.594" y="-820.4" font-family="Times Roman,serif" font-size="14.00">created_at :datetime</text>
<text text-anchor="start" x="504.594" y="-802.4" font-family="Times Roman,serif" font-size="14.00">updated_at :datetime</text>
</g>
<!-- Broadcast -->
<g id="node11" class="node"><title>Broadcast</title>
<polyline fill="none" stroke="black" points="872.594,-766 1013.59,-766 "/>
<path fill="none" stroke="black" d="M1013.59,-766C1019.59,-766 1025.59,-772 1025.59,-778"/>
<polyline fill="none" stroke="black" points="1025.59,-778 1025.59,-896 "/>
<path fill="none" stroke="black" d="M1025.59,-896C1025.59,-902 1019.59,-908 1013.59,-908"/>
<polyline fill="none" stroke="black" points="1013.59,-908 872.594,-908 "/>
<path fill="none" stroke="black" d="M872.594,-908C866.594,-908 860.594,-902 860.594,-896"/>
<polyline fill="none" stroke="black" points="860.594,-896 860.594,-778 "/>
<path fill="none" stroke="black" d="M860.594,-778C860.594,-772 866.594,-766 872.594,-766"/>
<text text-anchor="middle" x="943.094" y="-891.4" font-family="Times Roman,serif" font-size="14.00">Broadcast</text>
<polyline fill="none" stroke="black" points="860.594,-882 1025.59,-882 "/>
<text text-anchor="start" x="868.594" y="-865.4" font-family="Times Roman,serif" font-size="14.00">id :integer</text>
<text text-anchor="start" x="868.594" y="-847.4" font-family="Times Roman,serif" font-size="14.00">title :string</text>
<text text-anchor="start" x="868.594" y="-829.4" font-family="Times Roman,serif" font-size="14.00">text :text</text>
<text text-anchor="start" x="868.594" y="-811.4" font-family="Times Roman,serif" font-size="14.00">created_at :datetime</text>
<text text-anchor="start" x="868.594" y="-793.4" font-family="Times Roman,serif" font-size="14.00">updated_at :datetime</text>
<text text-anchor="start" x="868.594" y="-775.4" font-family="Times Roman,serif" font-size="14.00">user_ids :string</text>
</g>
<!-- Classifications -->
<g id="node12" class="node"><title>Classifications</title>
<polyline fill="none" stroke="black" points="1054.59,-784 1195.59,-784 "/>
<path fill="none" stroke="black" d="M1195.59,-784C1201.59,-784 1207.59,-790 1207.59,-796"/>
<polyline fill="none" stroke="black" points="1207.59,-796 1207.59,-878 "/>
<path fill="none" stroke="black" d="M1207.59,-878C1207.59,-884 1201.59,-890 1195.59,-890"/>
<polyline fill="none" stroke="black" points="1195.59,-890 1054.59,-890 "/>
<path fill="none" stroke="black" d="M1054.59,-890C1048.59,-890 1042.59,-884 1042.59,-878"/>
<polyline fill="none" stroke="black" points="1042.59,-878 1042.59,-796 "/>
<path fill="none" stroke="black" d="M1042.59,-796C1042.59,-790 1048.59,-784 1054.59,-784"/>
<text text-anchor="middle" x="1125.09" y="-873.4" font-family="Times Roman,serif" font-size="14.00">Classifications</text>
<polyline fill="none" stroke="black" points="1042.59,-864 1207.59,-864 "/>
<text text-anchor="start" x="1050.59" y="-847.4" font-family="Times Roman,serif" font-size="14.00">id :integer</text>
<text text-anchor="start" x="1050.59" y="-829.4" font-family="Times Roman,serif" font-size="14.00">name :string</text>
<text text-anchor="start" x="1050.59" y="-811.4" font-family="Times Roman,serif" font-size="14.00">created_at :datetime</text>
<text text-anchor="start" x="1050.59" y="-793.4" font-family="Times Roman,serif" font-size="14.00">updated_at :datetime</text>
</g>
<!-- Appliance -->
<g id="node13" class="node"><title>Appliance</title>
<polyline fill="none" stroke="black" points="1237.09,-739 1441.09,-739 "/>
<path fill="none" stroke="black" d="M1441.09,-739C1447.09,-739 1453.09,-745 1453.09,-751"/>
<polyline fill="none" stroke="black" points="1453.09,-751 1453.09,-923 "/>
<path fill="none" stroke="black" d="M1453.09,-923C1453.09,-929 1447.09,-935 1441.09,-935"/>
<polyline fill="none" stroke="black" points="1441.09,-935 1237.09,-935 "/>
<path fill="none" stroke="black" d="M1237.09,-935C1231.09,-935 1225.09,-929 1225.09,-923"/>
<polyline fill="none" stroke="black" points="1225.09,-923 1225.09,-751 "/>
<path fill="none" stroke="black" d="M1225.09,-751C1225.09,-745 1231.09,-739 1237.09,-739"/>
<text text-anchor="middle" x="1339.09" y="-918.4" font-family="Times Roman,serif" font-size="14.00">Appliance</text>
<polyline fill="none" stroke="black" points="1225.09,-909 1453.09,-909 "/>
<text text-anchor="start" x="1233.09" y="-892.4" font-family="Times Roman,serif" font-size="14.00">id :integer</text>
<text text-anchor="start" x="1233.09" y="-874.4" font-family="Times Roman,serif" font-size="14.00">name :string</text>
<text text-anchor="start" x="1233.09" y="-856.4" font-family="Times Roman,serif" font-size="14.00">abb :string</text>
<text text-anchor="start" x="1233.09" y="-838.4" font-family="Times Roman,serif" font-size="14.00">created_at :datetime</text>
<text text-anchor="start" x="1233.09" y="-820.4" font-family="Times Roman,serif" font-size="14.00">updated_at :datetime</text>
<text text-anchor="start" x="1233.09" y="-802.4" font-family="Times Roman,serif" font-size="14.00">preview_file_name :string</text>
<text text-anchor="start" x="1233.09" y="-784.4" font-family="Times Roman,serif" font-size="14.00">preview_content_type :string</text>
<text text-anchor="start" x="1233.09" y="-766.4" font-family="Times Roman,serif" font-size="14.00">preview_file_size :integer</text>
<text text-anchor="start" x="1233.09" y="-748.4" font-family="Times Roman,serif" font-size="14.00">preview_updated_at :datetime</text>
</g>
<!-- ActiveRecord::Base -->
<g id="node14" class="node"><title>ActiveRecord::Base</title>
<ellipse fill="none" stroke="black" cx="469.094" cy="-1019" rx="104.151" ry="18.3848"/>
<text text-anchor="middle" x="469.094" y="-1015.4" font-family="Times Roman,serif" font-size="14.00">ActiveRecord::Base</text>
</g>
<!-- ActiveRecord::Base&#45;&gt;Invoice -->
<g id="edge2" class="edge"><title>ActiveRecord::Base&#45;&gt;Invoice</title>
<path fill="none" stroke="black" d="M432.049,-1001.63C410.284,-991.92 382.034,-980.17 356.094,-972 284.916,-949.582 241.604,-991.835 192.094,-936 86.5294,-816.948 113.02,-609.556 133.174,-512.261"/>
</g>
<!-- ActiveRecord::Base&#45;&gt;Company -->
<g id="edge12" class="edge"><title>ActiveRecord::Base&#45;&gt;Company</title>
<path fill="none" stroke="black" d="M448.777,-1000.85C430.337,-984.248 402.528,-958.854 379.094,-936 372.838,-929.899 366.414,-923.525 359.998,-917.08"/>
</g>
<!-- ActiveRecord::Base&#45;&gt;Entry -->
<g id="edge16" class="edge"><title>ActiveRecord::Base&#45;&gt;Entry</title>
<path fill="none" stroke="black" d="M465.025,-1000.32C461.596,-983.576 456.96,-958.28 455.094,-936 447.75,-848.307 444.748,-825.39 455.094,-738 456.529,-725.88 458.303,-713.525 460.338,-701.09"/>
</g>
<!-- ActiveRecord::Base&#45;&gt;Role -->
<g id="edge20" class="edge"><title>ActiveRecord::Base&#45;&gt;Role</title>
<path fill="none" stroke="black" d="M515.712,-1002.42C566.586,-983.87 644.247,-954.048 670.094,-936 681.579,-927.981 692.679,-918.283 702.943,-908.133"/>
</g>
<!-- ActiveRecord::Base&#45;&gt;Stats -->
<g id="edge22" class="edge"><title>ActiveRecord::Base&#45;&gt;Stats</title>
<path fill="none" stroke="black" d="M480.247,-1000.55C497.015,-972.804 529.213,-919.53 552.309,-881.318"/>
</g>
<!-- ActiveRecord::Base&#45;&gt;Attachment -->
<g id="edge24" class="edge"><title>ActiveRecord::Base&#45;&gt;Attachment</title>
<path fill="none" stroke="black" d="M433.51,-1001.54C411.651,-991.497 382.808,-979.429 356.094,-972 251.753,-942.986 195.504,-1008.55 115.094,-936 35.3784,-864.08 68.5329,-808.52 55.0939,-702 28.0567,-487.699 -53.9528,-402.453 55.0939,-216 80.3791,-172.766 126.557,-143.221 170.444,-123.673"/>
</g>
<!-- ActiveRecord::Base&#45;&gt;User -->
<g id="edge26" class="edge"><title>ActiveRecord::Base&#45;&gt;User</title>
<path fill="none" stroke="black" d="M467.659,-1000.49C463.714,-944.441 455.075,-777.951 488.094,-738 528.2,-689.472 575.311,-740.538 625.094,-702 655.964,-678.103 680.891,-645.104 700.552,-611.123"/>
</g>
<!-- ActiveRecord::Base&#45;&gt;Type -->
<g id="edge28" class="edge"><title>ActiveRecord::Base&#45;&gt;Type</title>
<path fill="none" stroke="black" d="M463.441,-1000.27C458.432,-983.489 451.016,-958.173 445.094,-936 411.319,-809.548 375.982,-663.243 353.1,-566.357"/>
</g>
<!-- ActiveRecord::Base&#45;&gt;Broadcast -->
<g id="edge30" class="edge"><title>ActiveRecord::Base&#45;&gt;Broadcast</title>
<path fill="none" stroke="black" d="M550.188,-1007.32C646.79,-992.402 801.477,-965.011 852.094,-936 864.955,-928.628 877.035,-918.823 887.93,-908.244"/>
</g>
<!-- ActiveRecord::Base&#45;&gt;Classifications -->
<g id="edge32" class="edge"><title>ActiveRecord::Base&#45;&gt;Classifications</title>
<path fill="none" stroke="black" d="M566.609,-1012.54C706.219,-1001.98 954.951,-977.876 1034.09,-936 1054.83,-925.027 1073.31,-907.412 1088.11,-890.061"/>
</g>
<!-- ActiveRecord::Base&#45;&gt;Appliance -->
<g id="edge34" class="edge"><title>ActiveRecord::Base&#45;&gt;Appliance</title>
<path fill="none" stroke="black" d="M570.319,-1014.75C746.535,-1006.21 1101.79,-983.545 1216.09,-936 1219,-934.789 1221.9,-933.488 1224.78,-932.106"/>
</g>
<!-- Object -->
<g id="node16" class="node"><title>Object</title>
<ellipse fill="none" stroke="black" cx="1501.09" cy="-1019" rx="43.1335" ry="18.3848"/>
<text text-anchor="middle" x="1501.09" y="-1015.4" font-family="Times Roman,serif" font-size="14.00">Object</text>
</g>
<!-- Object&#45;&gt;Ability -->
<g id="edge4" class="edge"><title>Object&#45;&gt;Ability</title>
<path fill="none" stroke="black" d="M1501.09,-1000.21C1501.09,-967.603 1501.09,-900.482 1501.09,-863.278"/>
</g>
</g>
</svg>
