<?xml version="1.0" encoding="UTF-8" standalone="no"?>
<!DOCTYPE svg PUBLIC "-//W3C//DTD SVG 1.1//EN"
 "http://www.w3.org/Graphics/SVG/1.1/DTD/svg11.dtd">
<!-- Generated by graphviz version 2.26.3 (20100126.1600)
 -->
<!-- Title: models_diagram Pages: 1 -->
<svg width="1105pt" height="324pt"
 viewBox="0.00 0.00 1105.00 324.00" xmlns="http://www.w3.org/2000/svg" xmlns:xlink="http://www.w3.org/1999/xlink">
<g id="graph1" class="graph" transform="scale(1 1) rotate(0) translate(4 320)">
<title>models_diagram</title>
<polygon fill="white" stroke="white" points="-4,5 -4,-320 1102,-320 1102,5 -4,5"/>
<!-- _diagram_info -->
<g id="node1" class="node"><title>_diagram_info</title>
<text text-anchor="start" x="8" y="-299.8" font-family="Times Roman,serif" font-size="13.00">Models diagram</text>
<text text-anchor="start" x="8" y="-282.8" font-family="Times Roman,serif" font-size="13.00">Date: Feb 01 2014 &#45; 13:08</text>
<text text-anchor="start" x="8" y="-265.8" font-family="Times Roman,serif" font-size="13.00">Migration version: 20140201120228</text>
<text text-anchor="start" x="8" y="-248.8" font-family="Times Roman,serif" font-size="13.00">Generated by RailRoady 1.1.1</text>
<text text-anchor="start" x="8" y="-231.8" font-family="Times Roman,serif" font-size="13.00">http://railroady.prestonlee.com</text>
</g>
<!-- Invoice -->
<g id="node2" class="node"><title>Invoice</title>
<ellipse fill="none" stroke="black" cx="145" cy="-93" rx="45.9619" ry="18.3848"/>
<text text-anchor="middle" x="145" y="-89.4" font-family="Times Roman,serif" font-size="14.00">Invoice</text>
</g>
<!-- Ability -->
<g id="node3" class="node"><title>Ability</title>
<polygon fill="none" stroke="black" points="1084,-185 1024,-185 1024,-149 1084,-149 1084,-185"/>
<text text-anchor="middle" x="1054" y="-163.4" font-family="Times Roman,serif" font-size="14.00">Ability</text>
</g>
<!-- Company -->
<g id="node4" class="node"><title>Company</title>
<ellipse fill="none" stroke="black" cx="211" cy="-167" rx="56.7776" ry="18.3848"/>
<text text-anchor="middle" x="211" y="-163.4" font-family="Times Roman,serif" font-size="14.00">Company</text>
</g>
<!-- Company&#45;&gt;Invoice -->
<g id="edge8" class="edge"><title>Company&#45;&gt;Invoice</title>
<path fill="none" stroke="#170801" d="M189.653,-143.065C182.561,-135.114 174.645,-126.238 167.471,-118.195"/>
<ellipse fill="none" stroke="#170801" cx="192.361" cy="-146.101" rx="4.00002" ry="4.00002"/>
<polygon fill="#170801" stroke="#170801" points="167.258,-117.956 163.96,-107.498 163.93,-114.225 160.602,-110.493 160.602,-110.493 160.602,-110.493 163.93,-114.225 157.244,-113.488 167.258,-117.956 167.258,-117.956"/>
</g>
<!-- Entry -->
<g id="node5" class="node"><title>Entry</title>
<ellipse fill="none" stroke="black" cx="334" cy="-93" rx="38.8909" ry="18.3848"/>
<text text-anchor="middle" x="334" y="-89.4" font-family="Times Roman,serif" font-size="14.00">Entry</text>
</g>
<!-- Company&#45;&gt;Entry -->
<g id="edge6" class="edge"><title>Company&#45;&gt;Entry</title>
<path fill="none" stroke="#a57128" d="M245.31,-146.358C262.747,-135.868 283.834,-123.181 301.071,-112.811"/>
<ellipse fill="none" stroke="#a57128" cx="241.725" cy="-148.515" rx="4.00002" ry="4.00002"/>
<polygon fill="#a57128" stroke="#a57128" points="301.126,-112.778 312.014,-111.479 305.41,-110.2 309.695,-107.623 309.695,-107.623 309.695,-107.623 305.41,-110.2 307.375,-103.767 301.126,-112.778 301.126,-112.778"/>
</g>
<!-- Type -->
<g id="node10" class="node"><title>Type</title>
<ellipse fill="none" stroke="black" cx="243" cy="-93" rx="33.9411" ry="18.3848"/>
<text text-anchor="middle" x="243" y="-89.4" font-family="Times Roman,serif" font-size="14.00">Type</text>
</g>
<!-- Company&#45;&gt;Type -->
<g id="edge10" class="edge"><title>Company&#45;&gt;Type</title>
<path fill="none" stroke="#2c316b" d="M222.345,-140.765C225.191,-134.182 228.253,-127.102 231.125,-120.461"/>
<ellipse fill="none" stroke="#2c316b" cx="220.663" cy="-144.655" rx="4.00002" ry="4.00002"/>
<polygon fill="#2c316b" stroke="#2c316b" points="231.18,-120.334 239.279,-112.942 233.164,-115.745 235.149,-111.156 235.149,-111.156 235.149,-111.156 233.164,-115.745 231.019,-109.37 231.18,-120.334 231.18,-120.334"/>
</g>
<!-- Attachment -->
<g id="node8" class="node"><title>Attachment</title>
<ellipse fill="none" stroke="black" cx="202" cy="-19" rx="68.7979" ry="18.3848"/>
<text text-anchor="middle" x="202" y="-15.4" font-family="Times Roman,serif" font-size="14.00">Attachment</text>
</g>
<!-- Entry&#45;&gt;Attachment -->
<g id="edge14" class="edge"><title>Entry&#45;&gt;Attachment</title>
<path fill="none" stroke="#d7929b" d="M301.325,-74.6822C283.007,-64.4131 260.047,-51.5412 240.817,-40.7608"/>
<ellipse fill="none" stroke="#d7929b" cx="305.06" cy="-76.776" rx="4.00002" ry="4.00002"/>
<polygon fill="#d7929b" stroke="#d7929b" points="240.717,-40.705 234.195,-31.8896 236.356,-38.2599 231.994,-35.8149 231.994,-35.8149 231.994,-35.8149 236.356,-38.2599 229.794,-39.7401 240.717,-40.705 240.717,-40.705"/>
</g>
<!-- Role -->
<g id="node6" class="node"><title>Role</title>
<ellipse fill="none" stroke="black" cx="524" cy="-167" rx="32.0265" ry="18.3848"/>
<text text-anchor="middle" x="524" y="-163.4" font-family="Times Roman,serif" font-size="14.00">Role</text>
</g>
<!-- User -->
<g id="node9" class="node"><title>User</title>
<ellipse fill="none" stroke="black" cx="474" cy="-93" rx="33.9411" ry="18.3848"/>
<text text-anchor="middle" x="474" y="-89.4" font-family="Times Roman,serif" font-size="14.00">User</text>
</g>
<!-- Role&#45;&gt;User -->
<g id="edge18" class="edge"><title>Role&#45;&gt;User</title>
<path fill="none" stroke="#236a44" d="M506.408,-140.963C501.598,-133.846 496.387,-126.133 491.579,-119.017"/>
<polygon fill="#236a44" stroke="#236a44" points="506.552,-141.177 508.422,-151.982 509.351,-145.32 512.151,-149.463 512.151,-149.463 512.151,-149.463 509.351,-145.32 515.879,-146.944 506.552,-141.177 506.552,-141.177"/>
<polygon fill="#236a44" stroke="#236a44" points="491.363,-118.697 489.493,-107.892 488.564,-114.554 485.764,-110.411 485.764,-110.411 485.764,-110.411 488.564,-114.554 482.036,-112.93 491.363,-118.697 491.363,-118.697"/>
</g>
<!-- Stats -->
<g id="node7" class="node"><title>Stats</title>
<ellipse fill="none" stroke="black" cx="437" cy="-167" rx="36.977" ry="18.3848"/>
<text text-anchor="middle" x="437" y="-163.4" font-family="Times Roman,serif" font-size="14.00">Stats</text>
</g>
<!-- Broadcast -->
<g id="node11" class="node"><title>Broadcast</title>
<ellipse fill="none" stroke="black" cx="634" cy="-167" rx="60.1041" ry="18.3848"/>
<text text-anchor="middle" x="634" y="-163.4" font-family="Times Roman,serif" font-size="14.00">Broadcast</text>
</g>
<!-- Classifications -->
<g id="node12" class="node"><title>Classifications</title>
<ellipse fill="none" stroke="black" cx="792" cy="-167" rx="79.9031" ry="18.3848"/>
<text text-anchor="middle" x="792" y="-163.4" font-family="Times Roman,serif" font-size="14.00">Classifications</text>
</g>
<!-- Appliance -->
<g id="node13" class="node"><title>Appliance</title>
<ellipse fill="none" stroke="black" cx="948" cy="-167" rx="58.1882" ry="18.3848"/>
<text text-anchor="middle" x="948" y="-163.4" font-family="Times Roman,serif" font-size="14.00">Appliance</text>
</g>
<!-- ActiveRecord::Base -->
<g id="node14" class="node"><title>ActiveRecord::Base</title>
<ellipse fill="none" stroke="black" cx="372" cy="-269" rx="104.151" ry="18.3848"/>
<text text-anchor="middle" x="372" y="-265.4" font-family="Times Roman,serif" font-size="14.00">ActiveRecord::Base</text>
</g>
<!-- ActiveRecord::Base&#45;&gt;Invoice -->
<g id="edge2" class="edge"><title>ActiveRecord::Base&#45;&gt;Invoice</title>
<path fill="none" stroke="black" d="M333.113,-251.829C311.475,-242.527 283.949,-231.108 259,-222 209.089,-203.78 176.408,-228.856 145,-186 129.156,-164.382 133.86,-131.696 139.125,-111.386"/>
</g>
<!-- ActiveRecord::Base&#45;&gt;Company -->
<g id="edge12" class="edge"><title>ActiveRecord::Base&#45;&gt;Company</title>
<path fill="none" stroke="black" d="M343.587,-250.999C313.436,-231.897 266.2,-201.971 237,-183.472"/>
</g>
<!-- ActiveRecord::Base&#45;&gt;Entry -->
<g id="edge16" class="edge"><title>ActiveRecord::Base&#45;&gt;Entry</title>
<path fill="none" stroke="black" d="M368.005,-250.498C360.707,-216.695 345.299,-145.333 337.998,-111.519"/>
</g>
<!-- ActiveRecord::Base&#45;&gt;Role -->
<g id="edge20" class="edge"><title>ActiveRecord::Base&#45;&gt;Role</title>
<path fill="none" stroke="black" d="M398.825,-250.999C428.484,-231.097 475.653,-199.443 502.828,-181.208"/>
</g>
<!-- ActiveRecord::Base&#45;&gt;Stats -->
<g id="edge22" class="edge"><title>ActiveRecord::Base&#45;&gt;Stats</title>
<path fill="none" stroke="black" d="M383.922,-250.292C395.797,-231.657 413.898,-203.253 425.59,-184.906"/>
</g>
<!-- ActiveRecord::Base&#45;&gt;Attachment -->
<g id="edge24" class="edge"><title>ActiveRecord::Base&#45;&gt;Attachment</title>
<path fill="none" stroke="black" d="M333.741,-251.742C312.06,-242.303 284.291,-230.781 259,-222 203.173,-202.618 177.339,-222.675 131,-186 89.4347,-153.103 61.9705,-118.991 90,-74 103.287,-52.6719 127.529,-39.3797 150.07,-31.22"/>
</g>
<!-- ActiveRecord::Base&#45;&gt;User -->
<g id="edge26" class="edge"><title>ActiveRecord::Base&#45;&gt;User</title>
<path fill="none" stroke="black" d="M370.484,-250.163C369.384,-224.876 370.783,-179.495 391,-148 404.073,-127.634 427.67,-113.094 446.371,-104.099"/>
</g>
<!-- ActiveRecord::Base&#45;&gt;Type -->
<g id="edge28" class="edge"><title>ActiveRecord::Base&#45;&gt;Type</title>
<path fill="none" stroke="black" d="M358.439,-250.498C333.34,-216.254 279.987,-143.463 255.617,-110.214"/>
</g>
<!-- ActiveRecord::Base&#45;&gt;Broadcast -->
<g id="edge30" class="edge"><title>ActiveRecord::Base&#45;&gt;Broadcast</title>
<path fill="none" stroke="black" d="M415.264,-252.157C465.843,-232.466 548.717,-200.202 596.618,-181.553"/>
</g>
<!-- ActiveRecord::Base&#45;&gt;Classifications -->
<g id="edge32" class="edge"><title>ActiveRecord::Base&#45;&gt;Classifications</title>
<path fill="none" stroke="black" d="M433.521,-254.059C515.206,-234.222 658.253,-199.482 736.683,-180.434"/>
</g>
<!-- ActiveRecord::Base&#45;&gt;Appliance -->
<g id="edge34" class="edge"><title>ActiveRecord::Base&#45;&gt;Appliance</title>
<path fill="none" stroke="black" d="M456.777,-258.207C558.268,-244.59 733.081,-218.92 881,-186 889.025,-184.214 897.514,-182.036 905.655,-179.801"/>
</g>
<!-- Object -->
<g id="node16" class="node"><title>Object</title>
<ellipse fill="none" stroke="black" cx="1054" cy="-269" rx="43.1335" ry="18.3848"/>
<text text-anchor="middle" x="1054" y="-265.4" font-family="Times Roman,serif" font-size="14.00">Object</text>
</g>
<!-- Object&#45;&gt;Ability -->
<g id="edge4" class="edge"><title>Object&#45;&gt;Ability</title>
<path fill="none" stroke="black" d="M1054,-250.292C1054,-231.773 1054,-203.603 1054,-185.247"/>
</g>
</g>
</svg>
